<svg xmlns="http://www.w3.org/2000/svg" width="341" height="90" viewBox="0 0 341 90"><path fill="currentColor" d="M292.855 44c-.187-14.25 9.891-25.125 24-24.938 14.109-.187 24.188 10.688 24 24.938.188 14.25-9.891 25.125-24 24.938-14.109.187-24.187-10.688-24-24.938Zm23.625 14.86h.75c6.703 0 11.063-5.532 11.063-14.86s-4.36-14.86-11.063-14.86h-.75c-6.75 0-11.062 5.532-11.062 14.86s4.312 14.86 11.062 14.86ZM237.025 44c-.141-13.125 7.922-25.172 21.281-24.938 6.469 0 11.813 3.657 13.828 7.172V.781h12.516V68h-12.516v-6.234c-2.015 3.515-7.359 7.172-13.828 7.172-13.359.234-21.422-11.813-21.281-24.938Zm23.437 14.86h.75c5.766.14 11.063-6.047 10.922-14.86.141-8.813-5.156-15-10.922-14.86h-.75c-6.281 0-10.968 5.766-10.968 14.766s4.687 14.953 10.968 14.953ZM185.648 68V20h12.469v7.031c2.953-4.875 8.391-7.968 14.531-7.968 5.531 0 9.703 1.64 12.469 4.968 2.812 3.328 4.219 7.735 4.219 13.266V68h-12.469V38.703c0-6.187-2.766-9.562-7.594-9.562h-.75c-5.719 0-10.406 5.484-10.406 12.187V68h-12.469ZM175.568 68h-11.719c-.281-1.36-.468-3.328-.562-5.86-3 4.172-8.063 6.797-14.203 6.797-8.625.094-15.891-5.671-15.75-14.109 0-4.875 1.64-8.625 4.922-11.25 3.281-2.625 7.5-4.125 12.656-4.547l12.094-1.078v-1.172c0-4.312-3.094-7.64-7.688-7.64h-.797c-4.5 0-7.453 2.812-7.734 5.718h-12.516c.891-9.047 8.953-15.89 20.672-15.797 12.094 0 20.156 6.188 20.156 17.25v21.141c0 4.781.141 8.297.469 10.547Zm-12.562-19.594v-1.36l-10.407 1.079c-1.828.14-3.468.703-4.875 1.688-1.406.984-2.109 2.343-2.109 4.171 0 2.953 2.531 4.875 5.953 4.875h.75c5.672 0 10.688-4.406 10.688-10.453ZM112.144 13.766V.78h13.453v12.985h-13.453ZM112.613 68V20h12.469v48h-12.469ZM58.94 50.703V20h12.468v29.297c0 6.187 2.578 9.562 7.125 9.562h.75c5.438 0 9.89-5.484 9.89-12.187V20h12.47v48h-12.47v-7.031c-2.952 4.922-8.062 7.968-14.015 7.968-5.39 0-9.469-1.64-12.187-4.921-2.672-3.329-4.031-7.735-4.031-13.313ZM.953 73.39H13.47c.562 3.376 4.406 5.672 10.734 5.672h.563c6.422 0 11.25-3.937 11.25-11.437v-6.328C33.344 65.844 28.14 68 22.469 68c-11.11.14-20.907-9.188-20.719-24.469-.188-15.281 9.61-24.61 20.719-24.468 5.672 0 10.875 2.156 13.547 6.703V20h12.468v49.172c.141 10.219-8.953 20.156-24.843 19.969-12.61.14-22.407-6.61-22.688-15.75Zm24-15.468h.797c5.86 0 10.266-5.438 10.266-14.39 0-9-4.407-14.391-10.266-14.391h-.797c-6.094 0-10.734 5.39-10.734 14.39s4.64 14.39 10.734 14.39Z"/></svg>
